<svg xmlns="http://www.w3.org/2000/svg" width="200" height="200" viewBox="0 0 200 200">
  <!-- 背景圆形 -->
  <circle cx="100" cy="100" r="90" fill="#f8f9fa" stroke="#e9ecef" stroke-width="2"/>
  
  <!-- 握手 -->
  <!-- 左手 -->
  <path d="M60,120 C60,110 70,100 80,95 C85,90 90,85 95,90" stroke="#ea4335" stroke-width="6" stroke-linecap="round" fill="none"/>
  <ellipse cx="80" cy="95" rx="15" ry="10" fill="#ffffff" stroke="#ea4335" stroke-width="3"/>
  
  <!-- 右手 -->
  <path d="M140,120 C140,110 130,100 120,95 C115,90 110,85 105,90" stroke="#34a853" stroke-width="6" stroke-linecap="round" fill="none"/>
  <ellipse cx="120" cy="95" rx="15" ry="10" fill="#ffffff" stroke="#34a853" stroke-width="3"/>
  
  <!-- 交叉的手腕 -->
  <path d="M95,90 C100,85 105,95 110,100" stroke="#4285f4" stroke-width="3" stroke-linecap="round"/>
  
  <!-- 文档 -->
  <rect x="70" y="130" width="60" height="40" rx="4" fill="#ffffff" stroke="#fbbc05" stroke-width="3"/>
  <path d="M75,135 L125,135" stroke="#fbbc05" stroke-width="2"/>
  <path d="M75,145 L120,145" stroke="#fbbc05" stroke-width="2"/>
  <path d="M75,155 L115,155" stroke="#fbbc05" stroke-width="2"/>
  
  <!-- 齿轮（象征合作） -->
  <circle cx="100" cy="70" r="15" fill="#ffffff" stroke="#4285f4" stroke-width="3"/>
  <rect x="97" y="50" width="6" height="15" rx="2" fill="#4285f4"/>
  <rect x="97" y="85" width="6" height="15" rx="2" fill="#4285f4"/>
  <rect x="50" y="97" width="15" height="6" rx="2" fill="#4285f4"/>
  <rect x="85" y="97" width="15" height="6" rx="2" fill="#4285f4"/>
  <path d="M69,69 L77,77" stroke="#4285f4" stroke-width="4" stroke-linecap="round"/>
  <path d="M123,69 L131,77" stroke="#4285f4" stroke-width="4" stroke-linecap="round"/>
  <path d="M69,123 L77,131" stroke="#4285f4" stroke-width="4" stroke-linecap="round"/>
  <path d="M123,123 L131,131" stroke="#4285f4" stroke-width="4" stroke-linecap="round"/>
</svg>